<svg width="150" height="23" viewBox="0 0 150 23" fill="#242424" xmlns="http://www.w3.org/2000/svg">
<path d="M11.7082 22.6343H15.0355V14.2598C15.0369 14.0396 14.9942 13.8214 14.9101 13.6179C14.826 13.4145 14.702 13.2299 14.5456 13.075L9.60948 8.13804C9.45485 7.98122 9.27032 7.85705 9.06683 7.77288C8.86334 7.6887 8.64502 7.64624 8.42482 7.648H0.0444336V10.9832H9.20728C9.87058 10.9832 10.5067 11.2467 10.9757 11.7158C11.4447 12.1849 11.7082 12.8211 11.7082 13.4845V22.6343Z" fill="#242424"/>
<path d="M19.9938 22.6343H16.6592V14.2598C16.6579 14.0396 16.7005 13.8214 16.7846 13.6179C16.8688 13.4145 16.9927 13.2299 17.1492 13.075L22.0853 8.13804C22.2399 7.98122 22.4244 7.85705 22.6279 7.77288C22.8314 7.6887 23.0497 7.64624 23.2699 7.648H31.6503V10.9832H22.4875C21.8242 10.9832 21.188 11.2467 20.719 11.7158C20.25 12.1849 19.9865 12.8211 19.9865 13.4845L19.9938 22.6343Z" fill="#242424"/>
<path d="M46.6997 7.64062H49.2738V9.96646H49.3323C49.6761 9.20571 50.222 8.55387 50.9105 8.08188C51.5991 7.60989 52.4038 7.33584 53.2373 7.28955C53.8502 7.28618 54.4613 7.35492 55.0582 7.49434V9.96646C54.5701 9.78213 54.0514 9.69276 53.5298 9.70316C51.0581 9.70316 49.442 12.0583 49.442 15.8249V22.6489H46.6997V7.64062Z" fill="#242424"/>
<path d="M131.118 16.805C131.118 19.065 129.655 20.7838 126.949 20.7838C125.692 20.7838 124.163 19.9208 124.163 18.3263C124.163 15.6567 127.864 15.4007 129.355 15.4007C129.94 15.4007 130.525 15.4592 131.118 15.4592V16.805ZM123.074 11.0489C124.302 10.0508 125.835 9.50131 127.418 9.49104C130.174 9.49104 131.11 10.8368 131.11 13.4259C130.028 13.3674 129.26 13.3674 128.185 13.3674C125.341 13.3674 121.224 14.5377 121.224 18.3044C121.224 21.5957 123.491 22.9999 126.715 22.9999C127.615 23.0243 128.506 22.8301 129.314 22.4339C130.121 22.0377 130.821 21.4514 131.352 20.7253H131.41V22.6342H133.867V13.4698C133.867 9.37401 132.142 7.2749 127.864 7.2749C126.111 7.27996 124.394 7.76567 122.898 8.67918L123.074 11.0489Z" fill="#242424"/>
<path d="M64.3966 16.805C64.3966 19.065 62.9341 20.7838 60.2284 20.7838C58.9633 20.7838 57.4422 19.9208 57.4422 18.3263C57.4422 15.6567 61.1425 15.4007 62.6343 15.4007C63.2193 15.4007 63.8043 15.4592 64.3966 15.4592V16.805ZM56.3526 11.0489C57.5931 10.0414 59.1423 9.49129 60.7403 9.49104C63.4972 9.49104 64.4405 10.8368 64.4405 13.4259C63.3582 13.3674 62.5904 13.3674 61.5154 13.3674C58.6708 13.3674 54.5537 14.5377 54.5537 18.3044C54.5537 21.5957 56.8207 22.9999 60.0456 22.9999C60.9447 23.0243 61.8363 22.8301 62.6439 22.4339C63.4514 22.0377 64.1508 21.4514 64.6818 20.7253H64.7403V22.6342H67.1755V13.4698C67.1755 9.37401 65.4497 7.2749 61.1717 7.2749C59.4318 7.28662 57.7279 7.77209 56.2429 8.67918L56.3526 11.0489Z" fill="#242424"/>
<path d="M69.4277 7.64062H72.0896V9.96646H72.1481C72.6398 9.10491 73.359 8.39531 74.2271 7.9154C75.0952 7.4355 76.0786 7.20379 77.0695 7.24566C80.9526 7.24566 82.6711 9.64464 82.6711 13.6746V22.6343H79.9215V14.8595C79.9215 11.3561 79.1902 9.64464 76.7405 9.49837C73.5887 9.49837 72.1773 12.0363 72.1773 15.7006V22.6343H69.4277V7.64062Z" fill="#242424"/>
<path d="M100.631 19.716C101.671 20.3484 102.852 20.7128 104.068 20.7765C105.326 20.7765 106.883 20.2426 106.883 18.6189C106.883 15.8688 100.397 16.1102 100.397 11.8827C100.397 8.75963 102.722 7.26758 105.684 7.26758C106.853 7.28641 108.013 7.48626 109.121 7.86001L108.887 10.2517C107.969 9.81303 106.977 9.55243 105.962 9.48371C104.558 9.48371 103.322 10.0761 103.322 11.3195C103.322 14.3914 109.808 13.5137 109.808 18.3263C109.808 21.5371 107.249 22.9999 104.58 22.9999C103.164 23.0676 101.752 22.7863 100.47 22.1808L100.631 19.716Z" fill="#242424"/>
<path d="M120.324 9.85677H116.354V18.0923C116.354 19.833 117.414 20.7765 118.672 20.7765C119.337 20.7863 119.99 20.6006 120.551 20.2426V22.5831C119.791 22.8262 119.001 22.9641 118.204 22.9927C115.359 22.9927 113.604 21.6542 113.604 18.6482V9.8714H110.226V7.67721H113.604V4.17382L116.354 3.29614V7.64064H120.324V9.85677Z" fill="#242424"/>
<path d="M138.665 15.0863C138.606 12.3362 139.784 9.49838 142.775 9.49838C145.765 9.49838 147.206 12.3655 147.206 15.174C147.206 17.6827 145.912 20.7911 142.818 20.7911C139.842 20.7838 138.606 17.4413 138.665 15.0863ZM147.323 22.6343H149.956V0.589966H147.206V9.67391H147.148C146.299 8.29889 144.837 7.27493 142.19 7.27493C137.846 7.27493 135.725 10.8222 135.725 14.8595C135.725 18.8968 137.634 23 142.16 23C143.15 23.0439 144.135 22.8426 145.028 22.4138C145.921 21.9851 146.694 21.3422 147.279 20.5425H147.338L147.323 22.6343Z" fill="#242424"/>
<path d="M87.4827 15.0863C87.4242 12.3362 88.6015 9.49838 91.5924 9.49838C94.5833 9.49838 96.0239 12.3655 96.0239 15.174C96.0239 17.6827 94.7296 20.7911 91.6363 20.7911C88.6527 20.7838 87.4169 17.4413 87.4827 15.0863ZM96.1409 22.6416H98.7662V0.589966H96.0166V9.67391H95.9581C95.1099 8.29889 93.6473 7.27493 91.0001 7.27493C86.6563 7.27493 84.5356 10.8222 84.5356 14.8595C84.5356 18.8968 86.4443 23 90.9708 23C91.9605 23.0439 92.9456 22.8426 93.8387 22.4138C94.7318 21.9851 95.505 21.3422 96.0898 20.5425H96.1483L96.1409 22.6416Z" fill="#242424"/>
</svg>
